<?xml version="1.0" standalone="no"?>
<!DOCTYPE svg PUBLIC "-//W3C//DTD SVG 20010904//EN"
 "http://www.w3.org/TR/2001/REC-SVG-20010904/DTD/svg10.dtd">
<svg version="1.0" xmlns="http://www.w3.org/2000/svg"
 width="96.000000pt" height="96.000000pt" viewBox="0 0 96.000000 96.000000"
 preserveAspectRatio="xMidYMid meet">
<metadata>
Created by potrace 1.14, written by Peter Selinger 2001-2017
</metadata>
<g transform="translate(0.000000,96.000000) scale(0.100000,-0.100000)"
fill="#000000" stroke="none">
<path d="M153 764 c-59 -29 -64 -58 -61 -299 l3 -215 33 -32 32 -33 303 -3
c431 -4 410 -20 405 313 l-3 215 -33 32 -32 33 -308 2 c-264 3 -311 1 -339
-13z"/>
<path d="M319 88 c-7 -24 -4 -40 9 -50 15 -11 15 -11 6 2 -6 8 -10 23 -9 33 3
13 -2 26 -6 15z"/>
<path d="M460 80 c-9 -6 -10 -10 -3 -10 6 0 15 5 18 10 8 12 4 12 -15 0z"/>
<path d="M545 79 c-4 -6 -4 -13 -1 -16 3 -4 6 -1 6 6 0 7 5 9 12 5 7 -4 8 -3
4 4 -9 15 -13 15 -21 1z"/>
<path d="M626 63 c-6 -14 -5 -15 5 -6 7 7 10 15 7 18 -3 3 -9 -2 -12 -12z"/>
<path d="M225 44 c-9 -15 -12 -23 -6 -20 11 7 35 46 28 46 -3 0 -12 -12 -22
-26z"/>
<path d="M398 62 c-14 -6 -13 -9 6 -24 18 -13 23 -13 23 -3 0 8 -5 11 -10 8
-6 -4 -8 0 -4 10 3 10 5 17 4 16 -1 0 -9 -3 -19 -7z"/>
<path d="M173 45 c0 -8 4 -12 9 -9 5 3 6 10 3 15 -9 13 -12 11 -12 -6z"/>
<path d="M700 51 c0 -7 -5 -9 -12 -5 -7 5 -8 3 -3 -5 5 -9 10 -10 18 -2 6 6 8
14 4 18 -4 3 -7 1 -7 -6z"/>
<path d="M780 56 c0 -2 7 -7 16 -10 8 -3 12 -2 9 4 -6 10 -25 14 -25 6z"/>
<path d="M276 39 c2 -4 -2 -10 -8 -13 -7 -3 -2 -3 11 0 17 5 21 3 16 -6 -5 -8
-4 -11 3 -6 15 9 5 33 -13 33 -8 0 -12 -4 -9 -8z"/>
<path d="M475 40 c-5 -8 42 -7 49 1 3 3 -6 5 -20 5 -14 0 -27 -3 -29 -6z"/>
<path d="M346 25 c-11 -8 -15 -15 -9 -15 6 0 16 7 23 15 16 19 11 19 -14 0z"/>
<path d="M626 18 c3 -4 11 -5 19 -1 21 7 19 12 -4 10 -11 0 -18 -5 -15 -9z"/>
</g>
</svg>
